<svg fill="none" height="24" viewBox="0 0 68 24" width="68" xmlns="http://www.w3.org/2000/svg">
    <g clip-path="url(#clip0_1_400)">
        <path
            d="M29.1099 12.2896C29.1099 15.425 26.6571 17.7353 23.647 17.7353C20.6369 17.7353 18.1841 15.425 18.1841 12.2896C18.1841 9.13218 20.6369 6.84389 23.647 6.84389C26.6571 6.84389 29.1099 9.13218 29.1099 12.2896ZM26.7185 12.2896C26.7185 10.3303 25.2969 8.98978 23.647 8.98978C21.9971 8.98978 20.5755 10.3303 20.5755 12.2896C20.5755 14.2293 21.9971 15.5895 23.647 15.5895C25.2969 15.5895 26.7185 14.2268 26.7185 12.2896Z"
            fill="black" fill-opacity="0.2" />
        <path
            d="M40.8892 12.2896C40.8892 15.425 38.4364 17.7353 35.4263 17.7353C32.4162 17.7353 29.9634 15.425 29.9634 12.2896C29.9634 9.13464 32.4162 6.84389 35.4263 6.84389C38.4364 6.84389 40.8892 9.13218 40.8892 12.2896ZM38.4978 12.2896C38.4978 10.3303 37.0762 8.98978 35.4263 8.98978C33.7764 8.98978 32.3548 10.3303 32.3548 12.2896C32.3548 14.2293 33.7764 15.5895 35.4263 15.5895C37.0762 15.5895 38.4978 14.2268 38.4978 12.2896Z"
            fill="black" fill-opacity="0.2" />
        <path
            d="M52.187 7.1729V16.9497C52.187 20.9714 49.8152 22.6139 47.0114 22.6139C44.372 22.6139 42.7834 20.8486 42.1843 19.4049L44.2664 18.5382C44.6371 19.4246 45.5456 20.4705 47.0089 20.4705C48.8037 20.4705 49.9159 19.3632 49.9159 17.2787V16.4955H49.8324C49.2972 17.1559 48.266 17.7329 46.9647 17.7329C44.2418 17.7329 41.7473 15.3611 41.7473 12.3093C41.7473 9.2353 44.2418 6.84389 46.9647 6.84389C48.2635 6.84389 49.2947 7.42088 49.8324 8.06169H49.9159V7.17535H52.187V7.1729ZM50.0853 12.3093C50.0853 10.3917 48.8061 8.98978 47.1783 8.98978C45.5284 8.98978 44.1461 10.3917 44.1461 12.3093C44.1461 14.2072 45.5284 15.5895 47.1783 15.5895C48.8061 15.5895 50.0853 14.2072 50.0853 12.3093Z"
            fill="black" fill-opacity="0.2" />
        <path d="M55.927 1.44234V17.4014H53.5945V1.44234H55.927Z" fill="black" fill-opacity="0.2" />
        <path
            d="M65.0189 14.0818L66.8751 15.3192C66.276 16.2056 64.8324 17.7327 62.3378 17.7327C59.2442 17.7327 56.9338 15.3413 56.9338 12.287C56.9338 9.04853 59.2639 6.84126 62.0702 6.84126C64.8962 6.84126 66.2785 9.09026 66.7303 10.3056L66.9782 10.9243L59.6984 13.9394C60.2558 15.032 61.1225 15.5893 62.3378 15.5893C63.5556 15.5893 64.4002 14.9902 65.0189 14.0818ZM59.3056 12.1225L64.1719 10.1018C63.9043 9.42172 63.099 8.94786 62.1512 8.94786C60.9359 8.94786 59.2442 10.0208 59.3056 12.1225Z"
            fill="black" fill-opacity="0.2" />
        <path
            d="M9.35009 10.8729V8.56252H17.1357C17.2118 8.96518 17.2511 9.4415 17.2511 9.9571C17.2511 11.6905 16.7772 13.8339 15.25 15.3611C13.7646 16.9079 11.8667 17.7328 9.35254 17.7328C4.69249 17.7328 0.773926 13.937 0.773926 9.277C0.773926 4.61695 4.69249 0.821144 9.35254 0.821144C11.9305 0.821144 13.7671 1.8327 15.1469 3.15117L13.5166 4.78145C12.5272 3.85337 11.1866 3.13153 9.35009 3.13153C5.94712 3.13153 3.28564 5.87403 3.28564 9.277C3.28564 12.68 5.94712 15.4225 9.35009 15.4225C11.5574 15.4225 12.8144 14.5361 13.6198 13.7308C14.2728 13.0777 14.7025 12.1447 14.8719 10.8704L9.35009 10.8729Z"
            fill="black" fill-opacity="0.2" />
    </g>
    <defs>
        <clipPath id="clip0_1_400">
            <rect fill="white" height="22.5882" transform="translate(0.682861 0.70591)"
                width="66.7826" />
        </clipPath>
    </defs>
</svg>
