<svg fill="none" height="21" viewBox="0 0 20 21" width="20" xmlns="http://www.w3.org/2000/svg">
    <path
        d="M10 20.4102C8.63932 20.4102 7.35677 20.1497 6.15234 19.6289C4.95443 19.1081 3.89648 18.3887 2.97852 17.4707C2.06055 16.5527 1.34115 15.4948 0.820312 14.2969C0.299479 13.0924 0.0390625 11.8099 0.0390625 10.4492C0.0390625 9.08854 0.299479 7.80924 0.820312 6.61133C1.34115 5.4069 2.05729 4.3457 2.96875 3.42773C3.88672 2.50977 4.94466 1.79036 6.14258 1.26953C7.34701 0.748698 8.62956 0.488281 9.99023 0.488281C11.3509 0.488281 12.6335 0.748698 13.8379 1.26953C15.0423 1.79036 16.1035 2.50977 17.0215 3.42773C17.9395 4.3457 18.6589 5.4069 19.1797 6.61133C19.7005 7.80924 19.9609 9.08854 19.9609 10.4492C19.9609 11.8099 19.7005 13.0924 19.1797 14.2969C18.6589 15.4948 17.9395 16.5527 17.0215 17.4707C16.1035 18.3887 15.0423 19.1081 13.8379 19.6289C12.64 20.1497 11.3607 20.4102 10 20.4102ZM10 18.75C11.1523 18.75 12.2298 18.5352 13.2324 18.1055C14.235 17.6758 15.1172 17.0833 15.8789 16.3281C16.6406 15.5664 17.2331 14.6842 17.6562 13.6816C18.0859 12.679 18.3008 11.6016 18.3008 10.4492C18.3008 9.29688 18.0859 8.2194 17.6562 7.2168C17.2266 6.21419 16.6309 5.33203 15.8691 4.57031C15.1139 3.80859 14.2318 3.21615 13.2227 2.79297C12.2201 2.36328 11.1426 2.14844 9.99023 2.14844C8.83789 2.14844 7.76042 2.36328 6.75781 2.79297C5.75521 3.21615 4.8763 3.80859 4.12109 4.57031C3.36589 5.33203 2.77344 6.21419 2.34375 7.2168C1.92057 8.2194 1.70898 9.29688 1.70898 10.4492C1.70898 11.6016 1.92057 12.679 2.34375 13.6816C2.77344 14.6842 3.36589 15.5664 4.12109 16.3281C4.88281 17.0833 5.76497 17.6758 6.76758 18.1055C7.77018 18.5352 8.84766 18.75 10 18.75ZM10.0098 5.46875C10.2181 5.46875 10.3906 5.53711 10.5273 5.67383C10.6641 5.81055 10.7324 5.98633 10.7324 6.20117V11.084L10.6641 13.1543L11.6504 11.9727L12.8027 10.8008C12.9329 10.6576 13.1055 10.5859 13.3203 10.5859C13.5221 10.5859 13.6914 10.6543 13.8281 10.791C13.9648 10.9277 14.0332 11.0938 14.0332 11.2891C14.0332 11.4974 13.9681 11.6667 13.8379 11.7969L10.5762 15.0488C10.3939 15.2311 10.2051 15.3223 10.0098 15.3223C9.81445 15.3223 9.62565 15.2311 9.44336 15.0488L6.18164 11.7969C6.05143 11.6732 5.98633 11.5039 5.98633 11.2891C5.98633 11.0938 6.05143 10.9277 6.18164 10.791C6.31836 10.6543 6.48763 10.5859 6.68945 10.5859C6.89128 10.5859 7.0638 10.6576 7.20703 10.8008L8.36914 11.9727L9.3457 13.1445L9.27734 11.084V6.20117C9.27734 5.98633 9.3457 5.81055 9.48242 5.67383C9.61914 5.53711 9.79492 5.46875 10.0098 5.46875Z"
        fill="#78716C" opacity="0.9" />
</svg>
