<svg fill="none" height="13" viewBox="0 0 15 13" width="15" xmlns="http://www.w3.org/2000/svg">
    <path
        d="M0.0546875 6.84375C0.0546875 7.125 0.15625 7.36458 0.359375 7.5625L5.49219 12.6797C5.69531 12.8828 5.92188 12.9844 6.17188 12.9844C6.45833 12.9844 6.6901 12.8958 6.86719 12.7188C7.04427 12.5417 7.13281 12.3229 7.13281 12.0625C7.13281 11.9167 7.10677 11.7865 7.05469 11.6719C6.9974 11.5573 6.92448 11.4557 6.83594 11.3672L5.08594 9.60156L2.3125 7.07031L1.95312 7.65625L4.79688 7.82031H14.0156C14.3125 7.82031 14.5521 7.73177 14.7344 7.55469C14.9167 7.3724 15.0078 7.13542 15.0078 6.84375C15.0078 6.55729 14.9167 6.32552 14.7344 6.14844C14.5521 5.96615 14.3125 5.875 14.0156 5.875H4.79688L1.95312 6.03125L2.3125 6.63281L5.08594 4.08594L6.83594 2.32031C6.92448 2.23177 6.9974 2.13021 7.05469 2.01562C7.10677 1.89583 7.13281 1.76562 7.13281 1.625C7.13281 1.36458 7.04427 1.14583 6.86719 0.96875C6.6901 0.791667 6.45833 0.703125 6.17188 0.703125C6.05208 0.703125 5.9349 0.729167 5.82031 0.78125C5.70052 0.828125 5.58594 0.90625 5.47656 1.01562L0.359375 6.125C0.15625 6.32292 0.0546875 6.5625 0.0546875 6.84375Z"
        fill="#152420" opacity="0.4" />
</svg>
